# xmcd
#
# Track frame offsets: 
#        150
#        13118
#        41289
#        58536
#        85122
#        124269
#        143057
#        166166
#        195401
#        222995
#        234315
#
# Disc length: 3265 seconds
#
# Revision: 2
# Processed by: cddbd v1.5.2PL0 Copyright (c) Steve Scherf et al.
# Submitted via: ExactAudioCopy v1.0b3
#
DISCID=890cbf0b
DTITLE=Pandoras Play - Schattensaiten 01 Der Schneemann
DYEAR=2001
DGENRE=Audiobook
TTITLE0=Eingesperrt im Keller
TTITLE1=Ein Doppelgänger?
TTITLE2=Nichts als Ärger
TTITLE3=Ein Plan wird geschmiedet
TTITLE4=Die Verfolgung
TTITLE5=Gefangen!
TTITLE6=Flucht nach oben
TTITLE7=Anne in Gefahr
TTITLE8=Der Schneemann wird entlarvt
TTITLE9=Nur noch Wasser
TTITLE10=Trailer Schattensaiten 2
EXTD=
EXTT0=
EXTT1=
EXTT2=
EXTT3=
EXTT4=
EXTT5=
EXTT6=
EXTT7=
EXTT8=
EXTT9=
EXTT10=
PLAYORDER=
